<?xml version="1.0" encoding="utf-8"?>
<!-- Generator: Adobe Illustrator 22.1.0, SVG Export Plug-In . SVG Version: 6.00 Build 0)  -->
<svg version="1.1" id="Layer_1" xmlns="http://www.w3.org/2000/svg" xmlns:xlink="http://www.w3.org/1999/xlink" x="0px" y="0px"
	 viewBox="0 0 1366 768" style="enable-background:new 0 0 1366 768;" xml:space="preserve">
<g>
	<rect x="653.5" y="355.5" width="3" height="54"/>
	<path d="M656,356v53h-2v-53H656 M657,355h-4v55h4V355L657,355z"/>
</g>
<g>
	<rect x="667.5" y="355.5" width="3" height="54"/>
	<path d="M670,356v53h-2v-53H670 M671,355h-4v55h4V355L671,355z"/>
</g>
<g>
	<rect x="681.5" y="355.5" width="3" height="54"/>
	<path d="M684,356v53h-2v-53H684 M685,355h-4v55h4V355L685,355z"/>
</g>
<g>
	<rect x="695.5" y="355.5" width="3" height="54"/>
	<path d="M698,356v53h-2v-53H698 M699,355h-4v55h4V355L699,355z"/>
</g>
<g>
	<rect x="643.3" y="381" transform="matrix(0.9659 -0.2588 0.2588 0.9659 -75.9606 188.046)" width="65.8" height="3"/>
	<path d="M707.6,375.1l-62.4,16.7l-0.5-1.9l62.4-16.7L707.6,375.1 M709,375.8l-1-3.9l-64.7,17.3l1,3.9L709,375.8L709,375.8z"/>
</g>
</svg>
